<svg width="57" height="27" viewBox="0 0 57 27" fill="none" xmlns="http://www.w3.org/2000/svg">
<path d="M9.38711 3.77051C9.64102 3.77051 9.84609 3.7998 10.0023 3.8584C10.1684 3.90723 10.2953 3.99023 10.3832 4.10742C10.4711 4.22461 10.5297 4.37598 10.559 4.56152C10.598 4.74707 10.6176 4.9668 10.6176 5.2207C10.6176 5.44531 10.6078 5.66016 10.5883 5.86523C10.5785 6.06055 10.5541 6.26074 10.515 6.46582C10.4857 6.6709 10.4467 6.88574 10.3979 7.11035C10.349 7.33496 10.2953 7.5791 10.2367 7.84277C10.0512 8.62402 9.82656 9.40527 9.56289 10.1865C9.30898 10.958 9.05508 11.7539 8.80117 12.5742L8.25918 14.3613C8.81582 14.2148 9.33828 14.0098 9.82656 13.7461C10.3246 13.4824 10.808 13.1748 11.2768 12.8232C11.7455 12.4717 12.2045 12.0811 12.6537 11.6514C13.1029 11.2119 13.5619 10.7529 14.0307 10.2744C14.7631 9.52246 15.4906 8.74609 16.2133 7.94531C16.9359 7.13477 17.6342 6.30957 18.308 5.46973C18.4154 5.33301 18.5277 5.1377 18.6449 4.88379C18.7621 4.62988 18.8988 4.37598 19.0551 4.12207C19.2211 3.86816 19.4115 3.64844 19.6264 3.46289C19.8412 3.27734 20.1 3.18457 20.4027 3.18457C20.598 3.18457 20.7689 3.24805 20.9154 3.375C21.0717 3.50195 21.1986 3.66309 21.2963 3.8584C21.3939 4.04395 21.4672 4.25391 21.516 4.48828C21.5648 4.71289 21.5893 4.92285 21.5893 5.11816C21.5893 5.28418 21.5746 5.42578 21.5453 5.54297C20.9984 6.36328 20.4125 7.1543 19.7875 7.91602C19.1625 8.66797 18.5082 9.39551 17.8246 10.0986C17.1508 10.8018 16.4525 11.4902 15.7299 12.1641C15.017 12.8281 14.2943 13.4824 13.5619 14.127C14.5678 14.4688 15.4857 14.9131 16.3158 15.46C17.1557 16.0068 17.893 16.6709 18.5277 17.4521C19.1723 18.2236 19.7143 19.1221 20.1537 20.1475C20.5932 21.1729 20.9154 22.3301 21.1205 23.6191C21.0619 23.7949 20.9789 23.9609 20.8715 24.1172C20.7641 24.2832 20.6371 24.4248 20.4906 24.542C20.3441 24.6689 20.1781 24.7715 19.9926 24.8496C19.807 24.9277 19.6068 24.9668 19.392 24.9668C19.0502 24.9668 18.7816 24.8936 18.5863 24.7471C18.4008 24.6104 18.2543 24.4346 18.1469 24.2197C18.0492 24.0049 17.976 23.7656 17.9271 23.502C17.8881 23.2383 17.849 22.9893 17.81 22.7549L17.7514 22.3887C17.6439 21.7344 17.4438 21.124 17.1508 20.5576C16.8676 19.9814 16.5307 19.4688 16.14 19.0195C15.7592 18.5703 15.3393 18.1895 14.8803 17.877C14.4311 17.5547 13.9867 17.3105 13.5473 17.1445L13.1225 16.9834C12.9467 16.915 12.7465 16.8418 12.5219 16.7637C12.307 16.6855 12.0824 16.6123 11.848 16.5439C11.6234 16.4756 11.4037 16.4219 11.1889 16.3828C10.974 16.334 10.7836 16.3096 10.6176 16.3096C10.5199 16.3096 10.3295 16.3682 10.0463 16.4854C9.76309 16.5928 9.45059 16.7148 9.10879 16.8516C8.77676 16.9883 8.44961 17.1201 8.12734 17.2471C7.80508 17.374 7.56582 17.457 7.40957 17.4961L7.04336 18.9902C6.93594 19.4297 6.85781 19.8545 6.80898 20.2646C6.76992 20.665 6.74063 21.0459 6.72109 21.4072C6.71133 21.71 6.69668 22.0371 6.67715 22.3887C6.66738 22.7402 6.61856 23.0674 6.53066 23.3701C6.44277 23.6729 6.29141 23.9268 6.07656 24.1318C5.87148 24.3369 5.56387 24.4395 5.15371 24.4395C4.89981 24.4395 4.69473 24.3662 4.53848 24.2197C4.39199 24.0732 4.27969 23.8926 4.20156 23.6777C4.12344 23.4531 4.07461 23.2188 4.05508 22.9746C4.03555 22.7207 4.02578 22.4912 4.02578 22.2861C4.02578 22.0322 4.04043 21.749 4.06973 21.4365C4.10879 21.1143 4.15273 20.7871 4.20156 20.4551C4.26016 20.123 4.32363 19.7959 4.39199 19.4736C4.46035 19.1416 4.52871 18.8389 4.59707 18.5654L8.01016 4.8252C8.18594 4.12207 8.64492 3.77051 9.38711 3.77051ZM19.6357 21.8027C20.085 21.4805 20.5391 21.2803 20.998 21.2021C21.4668 21.1143 21.96 21.0459 22.4775 20.9971L26.1396 6.17285C26.1006 6.17285 25.9883 6.17285 25.8027 6.17285C25.627 6.16309 25.4268 6.14844 25.2021 6.12891C24.9873 6.09961 24.7725 6.05566 24.5576 5.99707C24.3428 5.93848 24.1816 5.85547 24.0742 5.74805C24.0254 5.67969 23.9619 5.5918 23.8838 5.48438C23.8154 5.36719 23.7471 5.24512 23.6787 5.11816C23.6104 4.98145 23.5518 4.84473 23.5029 4.70801C23.4541 4.57129 23.4297 4.43457 23.4297 4.29785C23.4297 4.07324 23.5225 3.8877 23.708 3.74121C23.9033 3.58496 24.1377 3.46289 24.4111 3.375C24.6943 3.27734 24.9971 3.20898 25.3193 3.16992C25.6416 3.13086 25.9346 3.11133 26.1982 3.11133C27.4287 3.11133 28.5664 3.15039 29.6113 3.22852C30.666 3.29688 31.6475 3.45312 32.5557 3.69727C33.4736 3.94141 34.333 4.28809 35.1338 4.7373C35.9443 5.18652 36.7158 5.78711 37.4482 6.53906C37.7217 6.82227 37.9805 7.13965 38.2246 7.49121C38.4785 7.84277 38.6982 8.22852 38.8838 8.64844C39.0791 9.05859 39.2354 9.50293 39.3525 9.98145C39.4697 10.4502 39.5283 10.9482 39.5283 11.4756C39.5283 11.7588 39.5137 12.0566 39.4844 12.3691C39.4551 12.6816 39.416 12.9502 39.3672 13.1748C39.084 14.3076 38.6836 15.3135 38.166 16.1924C37.6582 17.0615 37.0625 17.8379 36.3789 18.5215C35.7051 19.1953 34.9629 19.7812 34.1523 20.2793C33.3418 20.7773 32.502 21.2119 31.6328 21.583C30.7637 21.9541 29.8799 22.2764 28.9814 22.5498C28.083 22.8232 27.209 23.0674 26.3594 23.2822H26.374C25.9932 23.3994 25.583 23.502 25.1436 23.5898C24.7041 23.6777 24.2598 23.751 23.8105 23.8096C23.3613 23.8682 22.9121 23.917 22.4629 23.9561C22.0234 23.9854 21.6084 24 21.2178 24C20.7881 24 20.4268 23.9756 20.1338 23.9268C19.8408 23.8682 19.6016 23.7949 19.416 23.707C19.2402 23.6094 19.1133 23.502 19.0352 23.3848C18.957 23.2676 18.918 23.1406 18.918 23.0039C18.918 22.8086 18.9717 22.6084 19.0791 22.4033C19.1963 22.1885 19.3818 21.9883 19.6357 21.8027ZM26.0811 17.5986C25.9639 18.0967 25.8418 18.6094 25.7148 19.1367C25.5879 19.6641 25.4658 20.1816 25.3486 20.6895L25.6855 20.6162C25.9004 20.5674 26.1885 20.4941 26.5498 20.3965C26.9209 20.2988 27.3457 20.1768 27.8242 20.0303C28.3027 19.8838 28.8057 19.708 29.333 19.5029C29.8604 19.2979 30.417 19.0537 31.0029 18.7705C31.5986 18.4775 32.1846 18.1504 32.7607 17.7891C33.3369 17.418 33.8887 17.0176 34.416 16.5879C34.9434 16.1582 35.4072 15.6992 35.8076 15.2109C36.208 14.7129 36.5254 14.1953 36.7598 13.6582C37.0039 13.1113 37.126 12.5449 37.126 11.959C37.126 11.3633 37.0088 10.8018 36.7744 10.2744C36.54 9.7373 36.2227 9.24414 35.8223 8.79492C35.4316 8.33594 34.9727 7.93066 34.4453 7.5791C33.9277 7.21777 33.3857 6.91016 32.8193 6.65625C32.2529 6.40234 31.6768 6.21191 31.0908 6.08496C30.5146 5.94824 29.9678 5.87988 29.4502 5.87988C28.7178 7.77441 28.0928 9.69824 27.5752 11.6514C27.0576 13.6045 26.5596 15.5869 26.0811 17.5986ZM36.9596 21.8027C37.4088 21.4805 37.8629 21.2803 38.3219 21.2021C38.7906 21.1143 39.2838 21.0459 39.8014 20.9971L43.4635 6.17285C43.4244 6.17285 43.3121 6.17285 43.1266 6.17285C42.9508 6.16309 42.7506 6.14844 42.526 6.12891C42.3111 6.09961 42.0963 6.05566 41.8814 5.99707C41.6666 5.93848 41.5055 5.85547 41.398 5.74805C41.3492 5.67969 41.2857 5.5918 41.2076 5.48438C41.1393 5.36719 41.0709 5.24512 41.0025 5.11816C40.9342 4.98145 40.8756 4.84473 40.8268 4.70801C40.7779 4.57129 40.7535 4.43457 40.7535 4.29785C40.7535 4.07324 40.8463 3.8877 41.0318 3.74121C41.2271 3.58496 41.4615 3.46289 41.735 3.375C42.0182 3.27734 42.3209 3.20898 42.6432 3.16992C42.9654 3.13086 43.2584 3.11133 43.5221 3.11133C44.7525 3.11133 45.8902 3.15039 46.9352 3.22852C47.9898 3.29688 48.9713 3.45312 49.8795 3.69727C50.7975 3.94141 51.6568 4.28809 52.4576 4.7373C53.2682 5.18652 54.0396 5.78711 54.7721 6.53906C55.0455 6.82227 55.3043 7.13965 55.5484 7.49121C55.8023 7.84277 56.0221 8.22852 56.2076 8.64844C56.4029 9.05859 56.5592 9.50293 56.6764 9.98145C56.7936 10.4502 56.8521 10.9482 56.8521 11.4756C56.8521 11.7588 56.8375 12.0566 56.8082 12.3691C56.7789 12.6816 56.7398 12.9502 56.691 13.1748C56.4078 14.3076 56.0074 15.3135 55.4898 16.1924C54.982 17.0615 54.3863 17.8379 53.7027 18.5215C53.0289 19.1953 52.2867 19.7812 51.4762 20.2793C50.6656 20.7773 49.8258 21.2119 48.9566 21.583C48.0875 21.9541 47.2037 22.2764 46.3053 22.5498C45.4068 22.8232 44.5328 23.0674 43.6832 23.2822H43.6979C43.317 23.3994 42.9068 23.502 42.4674 23.5898C42.0279 23.6777 41.5836 23.751 41.1344 23.8096C40.6852 23.8682 40.2359 23.917 39.7867 23.9561C39.3473 23.9854 38.9322 24 38.5416 24C38.1119 24 37.7506 23.9756 37.4576 23.9268C37.1646 23.8682 36.9254 23.7949 36.7398 23.707C36.5641 23.6094 36.4371 23.502 36.359 23.3848C36.2809 23.2676 36.2418 23.1406 36.2418 23.0039C36.2418 22.8086 36.2955 22.6084 36.4029 22.4033C36.5201 22.1885 36.7057 21.9883 36.9596 21.8027ZM43.4049 17.5986C43.2877 18.0967 43.1656 18.6094 43.0387 19.1367C42.9117 19.6641 42.7896 20.1816 42.6725 20.6895L43.0094 20.6162C43.2242 20.5674 43.5123 20.4941 43.8736 20.3965C44.2447 20.2988 44.6695 20.1768 45.148 20.0303C45.6266 19.8838 46.1295 19.708 46.6568 19.5029C47.1842 19.2979 47.7408 19.0537 48.3268 18.7705C48.9225 18.4775 49.5084 18.1504 50.0846 17.7891C50.6607 17.418 51.2125 17.0176 51.7398 16.5879C52.2672 16.1582 52.7311 15.6992 53.1314 15.2109C53.5318 14.7129 53.8492 14.1953 54.0836 13.6582C54.3277 13.1113 54.4498 12.5449 54.4498 11.959C54.4498 11.3633 54.3326 10.8018 54.0982 10.2744C53.8639 9.7373 53.5465 9.24414 53.1461 8.79492C52.7555 8.33594 52.2965 7.93066 51.7691 7.5791C51.2516 7.21777 50.7096 6.91016 50.1432 6.65625C49.5768 6.40234 49.0006 6.21191 48.4146 6.08496C47.8385 5.94824 47.2916 5.87988 46.774 5.87988C46.0416 7.77441 45.4166 9.69824 44.899 11.6514C44.3814 13.6045 43.8834 15.5869 43.4049 17.5986Z" fill="#3F3D56"/>
<path d="M29.8264 9.39551C29.8264 11.5537 29.2063 13.8096 27.966 16.1631C26.7355 18.5068 25.1633 20.4209 23.2492 21.9053C21.3352 23.3799 19.465 24.1172 17.6389 24.1172C15.7443 24.1172 14.216 23.4873 13.0539 22.2275C11.8918 20.958 11.3107 19.21 11.3107 16.9834C11.3107 14.8545 11.9553 12.6475 13.2443 10.3623C14.5432 8.07715 16.1838 6.20703 18.1662 4.75195C20.1584 3.28711 22.0334 2.55469 23.7912 2.55469C25.6662 2.55469 27.1408 3.16504 28.215 4.38574C29.2893 5.60645 29.8264 7.27637 29.8264 9.39551ZM14.1672 17.335C14.1672 18.585 14.4943 19.6104 15.1486 20.4111C15.8127 21.2021 16.6623 21.5977 17.6975 21.5977C19.0744 21.5977 20.4855 20.958 21.9309 19.6787C23.3859 18.3896 24.5871 16.7344 25.5344 14.7129C26.4914 12.6914 26.9699 10.7871 26.9699 9C26.9699 7.74023 26.6916 6.77344 26.135 6.09961C25.5881 5.41602 24.7971 5.07422 23.7619 5.07422C22.3361 5.07422 20.8664 5.69434 19.3527 6.93457C17.8488 8.16504 16.6086 9.76172 15.632 11.7246C14.6555 13.6777 14.1672 15.5479 14.1672 17.335ZM47.1502 9.39551C47.1502 11.5537 46.5301 13.8096 45.2898 16.1631C44.0594 18.5068 42.4871 20.4209 40.573 21.9053C38.659 23.3799 36.7889 24.1172 34.9627 24.1172C33.0682 24.1172 31.5398 23.4873 30.3777 22.2275C29.2156 20.958 28.6346 19.21 28.6346 16.9834C28.6346 14.8545 29.2791 12.6475 30.5682 10.3623C31.867 8.07715 33.5076 6.20703 35.49 4.75195C37.4822 3.28711 39.3572 2.55469 41.115 2.55469C42.99 2.55469 44.4646 3.16504 45.5389 4.38574C46.6131 5.60645 47.1502 7.27637 47.1502 9.39551ZM31.491 17.335C31.491 18.585 31.8182 19.6104 32.4725 20.4111C33.1365 21.2021 33.9861 21.5977 35.0213 21.5977C36.3982 21.5977 37.8094 20.958 39.2547 19.6787C40.7098 18.3896 41.9109 16.7344 42.8582 14.7129C43.8152 12.6914 44.2937 10.7871 44.2937 9C44.2937 7.74023 44.0154 6.77344 43.4588 6.09961C42.9119 5.41602 42.1209 5.07422 41.0857 5.07422C39.66 5.07422 38.1902 5.69434 36.6766 6.93457C35.1727 8.16504 33.9324 9.76172 32.9559 11.7246C31.9793 13.6777 31.491 15.5479 31.491 17.335Z" fill="#14B8A6"/>
</svg>
