<svg width="71" height="40" viewBox="0 0 71 40" fill="none" xmlns="http://www.w3.org/2000/svg">
<path d="M24.359 32H16.8249V8.72727H24.5977C26.878 8.72727 28.8363 9.19318 30.4727 10.125C32.109 11.0492 33.3628 12.3788 34.234 14.1136C35.1128 15.8409 35.5522 17.9129 35.5522 20.3295C35.5522 22.7538 35.109 24.8371 34.2227 26.5795C33.3439 28.322 32.0712 29.6629 30.4045 30.6023C28.7378 31.5341 26.7227 32 24.359 32ZM20.3363 28.9318H24.1659C25.9386 28.9318 27.4121 28.5985 28.5863 27.9318C29.7606 27.2576 30.6393 26.2841 31.2227 25.0114C31.806 23.7311 32.0977 22.1705 32.0977 20.3295C32.0977 18.5038 31.806 16.9545 31.2227 15.6818C30.6469 14.4091 29.7871 13.4432 28.6431 12.7841C27.4992 12.125 26.0787 11.7955 24.3818 11.7955H20.3363V28.9318ZM37.0387 32V8.72727H40.5501V19.8409H40.8341L50.5955 8.72727H55.016L45.6296 19.2045L55.0501 32H50.8228L43.3001 21.6023L40.5501 24.7614V32H37.0387Z" fill="#14B8A6"/>
<path d="M69.5499 19.7898V21.7074C68.1096 21.7074 67.1039 22.0014 66.5328 22.5895C65.9618 23.1861 65.6763 24.1705 65.6763 25.5426V29.2116C65.6763 30.5156 65.5314 31.6108 65.2417 32.4972C64.9434 33.392 64.4917 34.108 63.8865 34.6449C63.2814 35.1818 62.5144 35.5696 61.5854 35.8082C60.6564 36.0469 59.5613 36.1662 58.2999 36.1662V33.1364C59.2885 33.1364 60.0598 32.9915 60.6138 32.7017C61.1678 32.4119 61.5556 31.9602 61.7772 31.3466C61.9902 30.7415 62.0968 29.9659 62.0968 29.0199V24.3665C62.0968 23.7102 62.1948 23.1009 62.3908 22.5384C62.5868 21.9844 62.949 21.5028 63.4774 21.0938C64.0059 20.6847 64.7601 20.3651 65.7402 20.1349C66.7203 19.9048 67.9902 19.7898 69.5499 19.7898ZM58.2999 3.55398C59.5613 3.55398 60.6564 3.6733 61.5854 3.91193C62.5144 4.15057 63.2814 4.53835 63.8865 5.07528C64.4917 5.61222 64.9434 6.32812 65.2417 7.22301C65.5314 8.10937 65.6763 9.20455 65.6763 10.5085V14.1903C65.6763 15.554 65.9618 16.5341 66.5328 17.1307C67.1039 17.7273 68.1096 18.0256 69.5499 18.0256V19.9304C67.9902 19.9304 66.7203 19.8153 65.7402 19.5852C64.7601 19.3636 64.0059 19.044 63.4774 18.6264C62.949 18.2173 62.5868 17.7315 62.3908 17.169C62.1948 16.6151 62.0968 16.0099 62.0968 15.3537V10.7003C62.0968 9.76278 61.9902 8.99148 61.7772 8.38636C61.5556 7.77273 61.1678 7.32102 60.6138 7.03125C60.0598 6.73295 59.2885 6.58381 58.2999 6.58381L58.2999 3.55398ZM69.5499 18.0256V21.7074H66.0087V18.0256H69.5499Z" fill="#3D3F56"/>
<path d="M1.45011 20.2102V18.2926C2.89045 18.2926 3.89613 17.9986 4.46715 17.4105C5.03818 16.8139 5.32369 15.8295 5.32369 14.4574V10.7884C5.32369 9.48437 5.46857 8.3892 5.75835 7.50284C6.05664 6.60795 6.50835 5.89204 7.11346 5.35511C7.71857 4.81818 8.48562 4.4304 9.4146 4.19176C10.3436 3.95312 11.4387 3.83381 12.7001 3.83381V6.86364C11.7115 6.86364 10.9402 7.00852 10.3862 7.2983C9.83221 7.58807 9.44443 8.03977 9.22283 8.65341C9.00977 9.25852 8.90323 10.0341 8.90323 10.9801V15.6335C8.90323 16.2898 8.80522 16.8991 8.6092 17.4616C8.41318 18.0156 8.05096 18.4972 7.52255 18.9062C6.99414 19.3153 6.23988 19.6349 5.25977 19.8651C4.27965 20.0952 3.00977 20.2102 1.45011 20.2102ZM12.7001 36.446C11.4387 36.446 10.3436 36.3267 9.4146 36.0881C8.48562 35.8494 7.71857 35.4616 7.11346 34.9247C6.50835 34.3878 6.05664 33.6719 5.75835 32.777C5.46857 31.8906 5.32369 30.7955 5.32369 29.4915V25.8097C5.32369 24.446 5.03818 23.4659 4.46715 22.8693C3.89613 22.2727 2.89045 21.9744 1.45011 21.9744V20.0696C3.00977 20.0696 4.27965 20.1847 5.25977 20.4148C6.23988 20.6364 6.99414 20.956 7.52255 21.3736C8.05096 21.7827 8.41318 22.2685 8.6092 22.831C8.80522 23.3849 8.90323 23.9901 8.90323 24.6463V29.2997C8.90323 30.2372 9.00977 31.0085 9.22283 31.6136C9.44443 32.2273 9.83221 32.679 10.3862 32.9688C10.9402 33.267 11.7115 33.4162 12.7001 33.4162V36.446ZM1.45011 21.9744V18.2926H4.9913V21.9744H1.45011Z" fill="#3D3F56"/>
</svg>
